<svg xmlns="http://www.w3.org/2000/svg" xmlns:xlink="http://www.w3.org/1999/xlink" width="16" height="16"
     viewBox="0 0 4.233 4.233">

    <path fill="#CED0D6"
          d="M2.393.734a.526.526 0 0 0-.373.2 1.248 1.248 0 0 0-.228.42c-.09-.075-.162-.17-.308-.213a.374.374 0 0 0-.342.062.313.313 0 0 0-.105.152c-.043.143.046.27.088.316l.089.095c.019.02.063.068.041.139-.023.077-.116.126-.21.097-.042-.014-.103-.045-.09-.088.007-.019.02-.033.026-.048.007-.014.01-.024.012-.03.017-.056-.007-.13-.067-.148C.87 1.67.812 1.684.79 1.757c-.026.082.013.232.225.297.248.077.457-.059.487-.235.02-.11-.03-.191-.122-.297l-.075-.082a.137.137 0 0 1-.013-.18c.039-.05.095-.071.187-.046.134.036.193.13.293.204-.041.134-.068.27-.093.392l-.014.09c-.072.372-.126.578-.267.695-.029.02-.07.05-.131.052-.031.001-.042-.02-.042-.03-.001-.023.017-.032.03-.043.019-.01.047-.028.045-.082a.123.123 0 0 0-.132-.118c-.058.002-.147.056-.143.157.003.103.1.18.244.174.078-.002.25-.033.421-.236.199-.232.254-.498.296-.693l.046-.257c.026.003.054.005.084.006.247.005.37-.123.372-.216.002-.056-.037-.112-.09-.11a.102.102 0 0 0-.098.08c-.012.05.079.098.008.143-.05.032-.14.056-.265.037l.022-.127c.048-.24.106-.535.324-.543.016 0 .074.001.075.04.001.013-.002.016-.017.046a.106.106 0 0 0-.021.064c.003.062.049.103.117.1.09-.003.116-.09.114-.136C2.654.797 2.542.73 2.393.734Z"
          transform="matrix(1.21707 0 0 1.21707 .024 .024)"/>
    <path fill="#CED0D6"
          d="M.908 3.094H.784q-.226 0-.326-.123-.099-.12-.099-.45v-.15q0-.293-.076-.407-.077-.116-.248-.116v-.256q.17 0 .248-.114.076-.116.076-.41V.918q0-.328.1-.449.1-.122.325-.122h.124v.205H.861q-.146 0-.204.063-.056.063-.056.3v.1q0 .324-.075.478-.076.153-.256.227.18.075.256.229Q.6 2.1.6 2.426v.1q0 .237.056.3.058.062.204.062h.047z"
          transform="matrix(1.21707 0 0 1.21707 .024 .024)"/>
    <path fill="#CED0D6"
          d="M2.532 3.094h.123q.226 0 .326-.123.1-.12.1-.45v-.15q0-.293.076-.407.077-.116.248-.116v-.256q-.171 0-.248-.114-.077-.116-.077-.41V.918q0-.328-.099-.449-.1-.122-.326-.122h-.123v.205h.047q.145 0 .203.063.057.063.057.3v.1q0 .324.075.478.075.153.255.227-.18.075-.255.229-.075.153-.075.478v.1q0 .237-.057.3-.058.062-.203.062h-.047z"
          transform="matrix(1.21707 0 0 1.21707 .024 .024)"/>

</svg>