<svg xmlns="http://www.w3.org/2000/svg" id="svg5" width="40" height="40" version="1.2">
    <style id="style1">.s2{fill:#444}</style>
    <g id="g1" transform="matrix(.07031 0 0 .07031 2 2)">
        <path fill="#333333" id="path1" fill-rule="evenodd"
              d="M40 0h432c22.1 0 40 17.9 40 40v432c0 22.1-17.9 40-40 40H40c-22.1 0-40-17.9-40-40V40C0 17.9 17.9 0 40 0Z"/>
        <path id="path3" fill-rule="evenodd" d="M40 52c-6.6 0-12-5.4-12-12s5.4-12 12-12 12 5.4 12 12-5.4 12-12 12z"
              class="s2" style="display:inline;fill:#ee034f;fill-opacity:1"/>
        <path id="path4" fill-rule="evenodd" d="M88 52c-6.6 0-12-5.4-12-12s5.4-12 12-12 12 5.4 12 12-5.4 12-12 12z"
              style="fill:#444;fill-opacity:1"/>
        <path id="path5" fill-rule="evenodd" d="M137 51c-6.6 0-12-5.4-12-12s5.4-12 12-12 12 5.4 12 12-5.4 12-12 12z"
              class="s2"/>
    </g>
    <g id="g2" style="fill:#9f5" transform="matrix(1.80233 0 0 1.80233 -16.234 -16.83)">
        <path id="path1-9" fill="#6c707e"
              d="M23.2 15.897a2.42 2.42 0 0 0-1.716.92 5.741 5.741 0 0 0-1.049 1.932c-.414-.345-.745-.782-1.416-.98a1.72 1.72 0 0 0-1.574.285 1.44 1.44 0 0 0-.483.7c-.198.657.212 1.242.405 1.453l.41.437c.087.092.29.313.188.64-.106.354-.534.58-.966.446-.193-.064-.474-.207-.414-.405.032-.087.092-.152.12-.22.032-.065.046-.111.055-.139.078-.257-.032-.598-.308-.68-.258-.083-.525-.019-.626.317-.12.377.06 1.067 1.035 1.366 1.14.354 2.102-.271 2.24-1.08.092-.507-.138-.88-.56-1.367l-.346-.377a.63.63 0 0 1-.06-.828c.18-.23.437-.327.86-.212.617.166.888.598 1.348.938-.188.617-.312 1.243-.427 1.804l-.065.414c-.331 1.711-.58 2.659-1.228 3.197-.133.092-.322.23-.603.24-.142.004-.193-.093-.193-.139-.005-.106.078-.147.138-.198.087-.046.216-.128.207-.377a.566.566 0 0 0-.607-.543c-.267.01-.676.258-.658.723.014.473.46.828 1.122.8.36-.009 1.15-.152 1.937-1.086.916-1.067 1.169-2.29 1.362-3.188l.212-1.182c.12.014.248.023.386.028 1.136.023 1.702-.566 1.711-.994.01-.258-.17-.515-.414-.506a.47.47 0 0 0-.45.368c-.056.23.363.45.036.658-.23.147-.644.257-1.219.17l.101-.584c.221-1.104.488-2.461 1.49-2.498.074 0 .341.005.346.184.005.06-.01.073-.078.211a.488.488 0 0 0-.097.295c.014.285.225.474.538.46.414-.014.534-.414.525-.626-.014-.487-.53-.796-1.215-.777z"
              style="stroke-width:4.60031;fill:#fff;fill-opacity:1"/>
        <path id="path2-3" fill="#6c707e"
              d="M16.369 26.754h-.57q-1.04 0-1.5-.566-.456-.552-.456-2.07v-.69q0-1.348-.35-1.873-.354-.533-1.14-.533v-1.178q.782 0 1.14-.525.35-.533.35-1.886v-.69q0-1.509.46-2.065.46-.561 1.495-.561h.57v.943h-.215q-.672 0-.939.29-.258.29-.258 1.38v.46q0 1.49-.345 2.198-.35.704-1.177 1.045.828.345 1.177 1.053.34.695.34 2.195v.46q0 1.09.258 1.38.267.285.939.285h.216z"
              style="stroke-width:4.60031;fill:#ff8400;fill-opacity:1"/>
        <path id="path3-8" fill="#6c707e"
              d="M23.84 26.754h.566q1.04 0 1.5-.566.46-.552.46-2.07v-.69q0-1.348.349-1.873.354-.533 1.14-.533v-1.178q-.786 0-1.14-.525-.354-.533-.354-1.886v-.69q0-1.509-.456-2.065-.46-.561-1.5-.561h-.565v.943h.216q.667 0 .934.29.262.29.262 1.38v.46q0 1.49.345 2.198.345.704 1.173 1.045-.828.345-1.173 1.053-.345.704-.345 2.2v.46q0 1.09-.262 1.38-.267.285-.934.285h-.216z"
              style="stroke-width:4.60031;fill:#ff8400;fill-opacity:1"/>
    </g>
</svg>